<?xml version="1.0" encoding="iso-8859-1"?>
<!-- Generator: Adobe Illustrator 19.0.0, SVG Export Plug-In . SVG Version: 6.00 Build 0)  -->
<svg version="1.1" id="Capa_1" xmlns="http://www.w3.org/2000/svg" xmlns:xlink="http://www.w3.org/1999/xlink" x="0px" y="0px"
	 viewBox="0 0 463.998 463.998" style="enable-background:new 0 0 463.998 463.998;" xml:space="preserve">
<path style="fill:#B7EEF7;" d="M151.159,210.464L284.087,77.536c13.792-13.79,32.497-21.537,52-21.536
	c40.611,0.004,73.532,32.925,73.536,73.536c0.001,19.503-7.746,38.208-21.536,52L255.159,314.464
	c-13.792,13.79-32.497,21.537-52,21.536c-40.611-0.004-73.532-32.925-73.536-73.536
	C129.621,242.961,137.368,224.256,151.159,210.464L151.159,210.464z"/>
<path style="fill:#8FD0DB;" d="M169.623,328c10.34,5.274,21.785,8.016,33.392,8c19.503,0.001,38.208-7.746,52-21.536l132.92-132.928
	c13.79-13.792,21.537-32.497,21.536-52c0.019-11.605-2.724-23.048-8-33.384L169.623,328z"/>
<path style="fill:#6EAFBA;" d="M383.895,73.728c25.032,29.144,23.372,72.656-3.808,99.808L305.623,248l-55.2,18.4
	c-11.139,3.711-22.803,5.602-34.544,5.6h-17c-24.616-0.016-48.503-8.359-67.776-23.672c-0.056,0.28-0.168,0.536-0.216,0.8
	c15.099,14.652,34.104,24.638,54.736,28.76V280c3.695,14.745,12.843,27.541,25.6,35.808c-22.716,8.088-47.968,4.329-67.344-10.024
	c24.008,32.801,70.06,39.93,102.861,15.922c3.001-2.197,5.832-4.618,8.467-7.242L313.623,256l-22.4,7.472l-36.064,36.048
	c-4.957,4.935-10.592,9.137-16.736,12.48l-13.536-4.512c-14.616-4.876-26.796-15.188-34.016-28.8c5.294,0.832,10.642,1.27,16,1.312
	h17.016c11.741,0.002,23.405-1.889,34.544-5.6l55.192-18.4l74.464-74.464c28.7-28.679,28.718-75.194,0.039-103.894
	C386.767,76.283,385.356,74.977,383.895,73.728L383.895,73.728z M217.623,319.44l0.176,0.096L217.623,319.44z"/>
<circle style="fill:#F4D8C3;" cx="265.623" cy="104" r="104"/>
<path style="fill:#DDC55E;" d="M249.623,32l-8.592,8.592c-4.743,4.742-7.407,11.173-7.408,17.88
	c-0.133,10.295,6.299,19.535,16,22.984l16,6.544V76.648c0.001-7.553,4.835-14.259,12-16.648s11.999-9.095,12-16.648V32L249.623,32z"
	/>
<circle style="fill:#F4EEC1;" cx="257.623" cy="184" r="48"/>
<g>
	<path style="fill:#2BB3CE;" d="M309.623,120c-6.627-0.006-11.995-5.383-11.989-12.011c0.006-6.627,5.383-11.995,12.011-11.989
		c4.95,0.004,9.39,3.048,11.178,7.664c2.391,6.179-0.678,13.126-6.856,15.52C312.583,119.726,311.109,120.003,309.623,120
		L309.623,120z"/>
	<path style="fill:#2BB3CE;" d="M205.623,120c-6.627,0.011-12.009-5.353-12.02-11.98c-0.008-4.972,3.051-9.435,7.692-11.22
		c6.186-2.392,13.139,0.682,15.532,6.868c2.393,6.186-0.682,13.139-6.868,15.532C208.576,119.736,207.105,120.007,205.623,120z"/>
</g>
<path style="fill:#D6CAA5;" d="M257.623,209.36c-13.255,0-24-10.745-24-24V176c0-4.418,3.582-8,8-8s8,3.582,8,8v9.368
	c0,4.418,3.582,8,8,8c4.418,0,8-3.582,8-8V176c0-4.418,3.582-8,8-8s8,3.582,8,8v9.368c0,13.255-10.745,24-24,24V209.36z"/>
<path style="fill:#F4D8C3;" d="M349.687,370.624c-7.27-11.083-22.148-14.174-33.231-6.904c0,0,0,0-0.001,0l-6.688,4.392
	l-20.064,13.16l-11.904,7.808c2.078-13.037-6.806-25.291-19.843-27.369c-5.913-0.943-11.964,0.368-16.957,3.673l-6.688,4.392
	l-26.752,17.552L168.023,367.2c-21.232-10.813-46.629-9.42-66.552,3.648l-47.096,30.896l35.104,53.512l26.76-17.552l34.648,14.736
	c42.794,18.211,91.732,14.749,131.536-9.304l0.136,0.216l4.8-3.144l8.6-5.6l46.816-30.72c11.091-7.259,14.197-22.134,6.938-33.224
	C349.704,370.65,349.695,370.637,349.687,370.624L349.687,370.624z"/>
<g>
	<path style="fill:#DDB9A2;" d="M80.679,441.864l8.8,13.376l26.76-17.552l34.648,14.736c42.791,18.215,91.729,14.76,131.536-9.288
		l0.136,0.216l4.8-3.144l8.6-5.6l46.816-30.72c11.083-7.27,14.174-22.148,6.904-33.231c0,0,0,0,0-0.001
		c-5.914,10.169-14.111,18.823-23.944,25.28l-41.472,27.2c-6.959,4.569-14.352,8.438-22.072,11.552l-5.92,2.4
		c-13.435,5.416-27.702,8.482-42.176,9.064c-16.329,0.656-32.63-1.862-48-7.416l-51.968-18.816L80.679,441.864z"/>
	<path style="fill:#DDB9A2;" d="M274.231,372.288c-1.495-2.232-3.359-4.193-5.512-5.8c2.369,9.809-1.669,20.049-10.096,25.6
		l-33.512,21.992l8.712,13.424l33.512-21.984C278.415,398.247,281.503,383.369,274.231,372.288L274.231,372.288z"/>
</g>
<path style="fill:#FFF8E3;" d="M267.55,376.673c4.847,7.388,2.788,17.307-4.601,22.155l-6.689,4.388l0,0l-17.554-26.756l0,0
	l6.689-4.388C252.784,367.225,262.703,369.285,267.55,376.673z"/>
<g>
</g>
<g>
</g>
<g>
</g>
<g>
</g>
<g>
</g>
<g>
</g>
<g>
</g>
<g>
</g>
<g>
</g>
<g>
</g>
<g>
</g>
<g>
</g>
<g>
</g>
<g>
</g>
<g>
</g>
</svg>
