<?xml version="1.0" encoding="iso-8859-1"?>
<!-- Generator: Adobe Illustrator 16.0.0, SVG Export Plug-In . SVG Version: 6.00 Build 0)  -->
<!DOCTYPE svg PUBLIC "-//W3C//DTD SVG 1.1//EN" "http://www.w3.org/Graphics/SVG/1.1/DTD/svg11.dtd">
<svg version="1.1" id="Capa_1" xmlns="http://www.w3.org/2000/svg" xmlns:xlink="http://www.w3.org/1999/xlink" x="0px" y="0px"
	 width="59.518px" height="59.518px" viewBox="0 0 59.518 59.518" style="enable-background:new 0 0 59.518 59.518;"
	 xml:space="preserve">
<g>
	<g>
		<path d="M29.759,0C13.351,0,0.002,13.351,0.002,29.759c0,16.409,13.349,29.759,29.757,29.759s29.756-13.35,29.756-29.759
			C59.516,13.351,46.167,0,29.759,0z M29.759,55.934c-14.433,0-26.174-11.742-26.174-26.175S15.326,3.585,29.759,3.585
			c14.433,0,26.173,11.741,26.173,26.174S44.192,55.934,29.759,55.934z"/>
		<path d="M29.759,5.188c-13.548,0-24.57,11.022-24.57,24.57c0,13.547,11.021,24.567,24.57,24.567
			c13.548,0,24.569-11.021,24.569-24.567S43.307,5.188,29.759,5.188z M29.759,50.741c-11.572,0-20.986-9.412-20.986-20.982
			c0-11.571,9.415-20.985,20.986-20.985c11.571,0,20.985,9.414,20.985,20.985C50.745,41.329,41.331,50.741,29.759,50.741z"/>
		<path d="M36.512,28.096c-4.711,0-8.544,3.833-8.544,8.544s3.833,8.545,8.544,8.545s8.544-3.834,8.544-8.545
			S41.223,28.096,36.512,28.096z M36.512,41.602c-2.736,0-4.961-2.225-4.961-4.961c0-2.734,2.225-4.959,4.961-4.959
			s4.961,2.225,4.961,4.959C41.473,39.377,39.249,41.602,36.512,41.602z"/>
		<path d="M31.551,23.006c0-4.711-3.833-8.545-8.544-8.545s-8.544,3.834-8.544,8.545s3.833,8.545,8.544,8.545
			S31.551,27.717,31.551,23.006z M23.007,27.967c-2.736,0-4.961-2.225-4.961-4.961c0-2.735,2.225-4.96,4.961-4.96
			s4.961,2.225,4.961,4.96C27.968,25.742,25.742,27.967,23.007,27.967z"/>
	</g>
</g>
<g>
</g>
<g>
</g>
<g>
</g>
<g>
</g>
<g>
</g>
<g>
</g>
<g>
</g>
<g>
</g>
<g>
</g>
<g>
</g>
<g>
</g>
<g>
</g>
<g>
</g>
<g>
</g>
<g>
</g>
</svg>
