<?xml version="1.0" encoding="UTF-8"?>
<svg width="165px" height="169px" viewBox="0 0 165 169" version="1.1" xmlns="http://www.w3.org/2000/svg" xmlns:xlink="http://www.w3.org/1999/xlink">
    <!-- Generator: Sketch 48.2 (47327) - http://www.bohemiancoding.com/sketch -->
    <title>cart</title>
    <desc>Created with Sketch.</desc>
    <defs></defs>
    <g id="lewisCartEmpty" stroke="none" stroke-width="1" fill="none" fill-rule="evenodd" transform="translate(-718.000000, -319.000000)" opacity="0.2">
        <path d="M731.520028,412.776233 L726.625,412.776233 C721.87,412.776233 718,408.959612 718,404.270199 L718,388.50075 C718,383.811337 721.87,379.994716 726.625,379.994716 L874.375,379.994716 C879.13,379.994716 883,383.811337 883,388.50075 L883,404.270199 C883,408.959612 879.135,412.776233 874.375,412.776233 L869.490134,412.776233 L862.8,478.940854 C862.3,483.797923 858.195,487.461681 853.245,487.461681 L747.755,487.461681 C742.805,487.461681 738.705,483.797923 738.215,478.940854 L731.520028,412.776233 Z M736.54,412.776233 L743.185,478.452681 C743.42,480.78013 745.38,482.530647 747.75,482.530647 L853.245,482.530647 C855.615,482.530647 857.58,480.78013 857.815,478.452681 L864.46,412.776233 L736.54,412.776233 Z M726.625,384.920819 C724.625,384.920819 723,386.523406 723,388.495819 L723,404.265268 C723,406.237681 724.625,407.840268 726.625,407.840268 L874.375,407.840268 C876.37,407.840268 878,406.237681 878,404.265268 L878,388.495819 C878,386.523406 876.375,384.920819 874.375,384.920819 L726.625,384.920819 Z M764.275,467.313475 C762.895,467.313475 761.775,466.208923 761.775,464.847957 L761.775,429.097957 C761.775,427.736992 762.895,426.63244 764.275,426.63244 C765.655,426.63244 766.775,427.736992 766.775,429.097957 L766.775,464.847957 C766.775,466.213854 765.66,467.313475 764.275,467.313475 Z M788.425,467.313475 C787.045,467.313475 785.925,466.208923 785.925,464.847957 L785.925,429.097957 C785.925,427.736992 787.045,426.63244 788.425,426.63244 C789.805,426.63244 790.925,427.736992 790.925,429.097957 L790.925,464.847957 C790.925,466.213854 789.81,467.313475 788.425,467.313475 Z M812.575,467.313475 C811.195,467.313475 810.075,466.208923 810.075,464.847957 L810.075,429.097957 C810.075,427.736992 811.195,426.63244 812.575,426.63244 C813.955,426.63244 815.075,427.736992 815.075,429.097957 L815.075,464.847957 C815.075,466.213854 813.955,467.313475 812.575,467.313475 Z M836.725,467.313475 C835.345,467.313475 834.225,466.208923 834.225,464.847957 L834.225,429.097957 C834.225,427.736992 835.345,426.63244 836.725,426.63244 C838.105,426.63244 839.225,427.736992 839.225,429.097957 L839.225,464.847957 C839.225,466.213854 838.105,467.313475 836.725,467.313475 Z M799,321 C799,319.895431 799.895431,319 801,319 C802.104569,319 803,319.895431 803,321 L803,351 C803,352.104569 802.104569,353 801,353 C799.895431,353 799,352.104569 799,351 L799,321 Z M845.45718,330.79637 C846.121926,329.914222 847.375932,329.737982 848.258081,330.402729 C849.140229,331.067475 849.316468,332.321482 848.651722,333.20363 L830.597271,357.162695 C829.932525,358.044844 828.678518,358.221083 827.79637,357.556336 C826.914222,356.89159 826.737982,355.637584 827.402729,354.755435 L845.45718,330.79637 Z M756.54282,330.79637 L774.597271,354.755435 C775.262018,355.637584 775.085778,356.89159 774.20363,357.556336 C773.321482,358.221083 772.067475,358.044844 771.402729,357.162695 L753.348278,333.20363 C752.683532,332.321482 752.859771,331.067475 753.741919,330.402729 C754.624068,329.737982 755.878074,329.914222 756.54282,330.79637 Z" id="cart" fill="#445469" fill-rule="nonzero"></path>
    </g>
</svg>