<svg height="472pt" viewBox="-3 0 471 472" width="472pt" xmlns="http://www.w3.org/2000/svg"><path d="m208.5 184h-40v-16h32v-32h-8c-13.253906 0-24-10.746094-24-24s10.746094-24 24-24 24 10.746094 24 24v8h8c4.417969 0 8-3.582031 8-8v-88c0-13.253906 10.746094-24 24-24h64c13.253906 0 24 10.746094 24 24v96c0 13.253906-10.746094 24-24 24h-40c-4.417969 0-8 3.582031-8 8v24h-16v-24c0-13.253906 10.746094-24 24-24h40c4.417969 0 8-3.582031 8-8v-96c0-4.417969-3.582031-8-8-8h-64c-4.417969 0-8 3.582031-8 8v88c0 13.253906-10.746094 24-24 24h-8v40c0 4.417969-3.582031 8-8 8zm-16-80c-4.417969 0-8 3.582031-8 8s3.582031 8 8 8h8v-8c0-4.417969-3.582031-8-8-8zm0 0" fill="#b5b5b5"/><path d="m.5 176h464v296h-464zm0 0" fill="#005e9c"/><path d="m32.5 440v-192h400v192zm0 0" fill="#85bfe6"/><path d="m104.5 384v-104h256v104zm0 0" fill="#ee3446"/><path d="m384.5 176h-304l24 72h256zm0 0" fill="#ee3446"/><path d="m136.5 208c0 4.417969-3.582031 8-8 8s-8-3.582031-8-8 3.582031-8 8-8 8 3.582031 8 8zm0 0"/><path d="m176.5 216c0 4.417969-3.582031 8-8 8s-8-3.582031-8-8 3.582031-8 8-8 8 3.582031 8 8zm0 0"/><path d="m344.5 208c0 4.417969-3.582031 8-8 8s-8-3.582031-8-8 3.582031-8 8-8 8 3.582031 8 8zm0 0"/><path d="m304.5 216c0 4.417969-3.582031 8-8 8s-8-3.582031-8-8 3.582031-8 8-8 8 3.582031 8 8zm0 0"/><path d="m176.5 332c0 11.046875-8.953125 20-20 20s-20-8.953125-20-20 8.953125-20 20-20 20 8.953125 20 20zm0 0" fill="#4e4e4e"/><path d="m328.5 332c0 11.046875-8.953125 20-20 20s-20-8.953125-20-20 8.953125-20 20-20 20 8.953125 20 20zm0 0" fill="#4e4e4e"/><path d="m208.5 312h48v40h-48zm0 0" fill="#d8d8d3"/></svg>