<svg height="464pt" viewBox="0 0 464 464" width="464pt" xmlns="http://www.w3.org/2000/svg"><path d="m464 232c0 128.128906-103.871094 232-232 232s-232-103.871094-232-232 103.871094-232 232-232 232 103.871094 232 232zm0 0" fill="#29485a"/><path d="m432 232c0 110.457031-89.542969 200-200 200s-200-89.542969-200-200 89.542969-200 200-200 200 89.542969 200 200zm0 0" fill="#e6e6e6"/><g fill="#f2f2f2"><path d="m224 32h16v88h-16zm0 0"/><path d="m32 224h88v16h-88zm0 0"/><path d="m224 344h16v88h-16zm0 0"/><path d="m344 224h88v16h-88zm0 0"/></g><path d="m335.695312 144c45.78125 53.917969 42.589844 133.925781-7.335937 184.023438-49.929687 50.101562-129.925781 53.570312-184 7.976562" fill="#5bc9e1"/><path d="m128 319.640625c-45.59375-54.074219-42.125-134.070313 7.976562-184 50.097657-49.925781 130.105469-53.117187 184.023438-7.335937" fill="#92d7e7"/><path d="m320 128 40-24-96 160-160 96 96-160z" fill="#06aae9"/><path d="m240 240 24 24 96-160-160 96 24 24" fill="#ed1c24"/><path d="m248 232c0 8.835938-7.164062 16-16 16s-16-7.164062-16-16 7.164062-16 16-16 16 7.164062 16 16zm0 0" fill="#f2f2f2"/></svg>