<svg height="464pt" viewBox="-11 0 463 464" width="464pt" xmlns="http://www.w3.org/2000/svg"><path d="m359.226562 315.558594-36.871093-73.734375c3.777343-6.890625 3.941406-15.195313.441406-22.230469-2.125-4.289062-5.496094-7.835938-9.671875-10.167969-1.605469-.886719-3.304688-1.585937-5.066406-2.089843l-10.300782-19.945313c-9.984374-20.027344-29.714843-33.378906-52.019531-35.195313-22.308593-1.816406-43.9375 8.167969-57.03125 26.316407-10.429687-29.335938-40.476562-46.898438-71.15625-41.589844-30.683593 5.308594-53.082031 31.941406-53.050781 63.078125v22.304688c-5.070312 4.484374-7.980469 10.925781-8 17.695312 0 13.253906 10.746094 24 24 24h8.800781c1.207031 5.71875 3.667969 11.097656 7.199219 15.753906v33.046875c-54.640625 6.328125-95.894531 52.546875-96 107.550781v35.648438c0 4.417969 3.582031 8 8 8h424c4.417969 0 8-3.582031 8-8v-35.648438c-.09375-49.351562-33.496094-92.417968-81.273438-104.792968zm-19.480468-3.199219c-2.519532-.175781-5.03125-.382813-7.597656-.382813h-7.863282l-19.480468-38.96875c1.070312-5.742187.859374-11.652343-.617188-17.304687l5.785156-2.886719zm-131.246094-16.183594c5.867188 1.824219 12.210938 1.304688 17.703125-1.449219l7.882813-3.941406c3.625 4.582032 8.226562 8.296875 13.46875 10.878906l8.433593 16.863282c-13.121093 4.734375-25.195312 11.988281-35.535156 21.351562-3.761719-3.429687-7.753906-6.597656-11.953125-9.480468zm-.183594-19.375c-1.972656-3.949219-.371094-8.753906 3.574219-10.730469l7.152344-3.582031 7.160156 14.3125-7.152344 3.582031c-3.953125 1.976563-8.761719.375-10.734375-3.582031zm35.777344 0-11.738281-23.464843 29.097656-29.097657 10.398437.800781 15.144532 30.296876c5.402344 11.761718.503906 25.691406-11.070313 31.484374-11.578125 5.789063-25.660156 1.355469-31.832031-10.019531zm39.351562 25.039063c4.925782-2.464844 9.289063-5.933594 12.796876-10.183594l10.144531 20.34375h-13.535157c-7.113281.007812-14.210937.703125-21.191406 2.078125l-4.039062-8.078125c5.503906-.265625 10.890625-1.671875 15.824218-4.128906zm18.398438-79.535156c1.199219.085937 2.359375.4375 3.410156 1.023437 1.378906.78125 2.496094 1.960937 3.199219 3.382813 1.976563 3.949218.378906 8.757812-3.570313 10.738281l-7.199218 3.574219-2.398438-4.800782-4.5625-9.101562zm-82.800781-49.226563c23.753906-11.824219 52.59375-2.175781 64.449219 21.5625l7.695312 14.894531-2.085938.90625v-.089844l-30.105468-2.3125c-2.324219-.15625-4.601563.6875-6.265625 2.320313l-34.847657 34.847656-13.160156 6.585938-7.152344-14.3125c-11.824218-23.714844-2.21875-52.527344 21.472657-64.402344zm-28.480469 86.160156 1.746094 3.480469.191406-.09375v3.894531c-1.324219 4.4375-1.324219 9.164063 0 13.601563v41.480468c-10.144531-4.578124-20.941406-7.546874-32-8.800781v-33.046875c3.53125-4.65625 5.992188-10.035156 7.199219-15.753906h8.800781c5.074219-.050781 10-1.71875 14.0625-4.761719zm-7.34375-14.710937-.085938-.054688c-1.488281 2.203125-3.972656 3.527344-6.632812 3.527344h-8v-12.902344l12.398438 4.132813c.699218 1.777343 1.449218 3.554687 2.320312 5.296875zm-94.71875 3.472656h-8c-4.417969 0-8-3.582031-8-8 1.449219.003906 2.875-.386719 4.121094-1.128906l11.878906-7.144532zm-8-30.136719v-17.863281c0-26.507812 21.492188-48 48-48s48 21.492188 48 48v20.894531l-61.472656-20.480469c-.8125-.273437-1.667969-.414062-2.527344-.414062-1.453125 0-2.875.394531-4.121094 1.144531zm48 62.136719c-13.253906 0-24-10.746094-24-24v-33.871094l8.960938-5.375 39.039062 13.007813v26.238281c0 13.253906-10.746094 24-24 24zm16 12.609375v19.390625h-32v-19.390625c10.1875 4.519531 21.8125 4.519531 32 0zm96 155.390625h-40v-40h-16v40h-120v-40h-16v40h-32v-27.648438c.0625-50.980468 41.371094-92.289062 92.351562-92.351562h39.296876c50.980468.0625 92.289062 41.371094 92.351562 92.351562zm184 0h-32v-40h-16v40h-120v-27.648438c.023438-25.207031-8.785156-49.625-24.894531-69.015624 16.828125-15.082032 38.648437-23.398438 61.246093-23.335938h39.296876c50.980468.0625 92.289062 41.371094 92.351562 92.351562zm0 0"/><path d="m224.011719 24.503906c-9.550781-.019531-18.585938 4.328125-24.535157 11.800782l-7.304687 9.136718-7.304687-9.128906c-6.683594-8.375-17.175782-12.761719-27.832032-11.636719-10.65625 1.121094-20.003906 7.597657-24.800781 17.179688l-1.078125 2.160156c-6.21875 12.554687-3.421875 27.703125 6.871094 37.207031l48.738281 44.671875c3.058594 2.808594 7.753906 2.808594 10.8125 0l48.738281-44.671875c10.296875-9.507812 13.09375-24.667968 6.863282-37.222656l-1.0625-2.128906c-5.292969-10.671875-16.191407-17.40625-28.105469-17.367188zm11.488281 44.929688-43.328125 39.71875-43.328125-39.71875c-5.046875-4.65625-6.421875-12.078125-3.382812-18.234375l1.078124-2.152344c2.347657-4.707031 6.933594-7.890625 12.164063-8.441406 5.230469-.554688 10.382813 1.601562 13.660156 5.714843l13.601563 16.9375c1.566406 1.808594 3.84375 2.847657 6.238281 2.847657s4.671875-1.039063 6.242187-2.847657l13.597657-16.945312c3.28125-4.113281 8.433593-6.265625 13.664062-5.707031 5.230469.554687 9.816407 3.742187 12.160157 8.449219l1.066406 2.128906c3.03125 6.171875 1.632812 13.601562-3.433594 18.25zm0 0"/><path d="m312.5 0h16v16h-16zm0 0"/><path d="m312.5 48h16v16h-16zm0 0"/><path d="m288.5 24h16v16h-16zm0 0"/><path d="m336.5 24h16v16h-16zm0 0"/><path d="m32.5 64h16v16h-16zm0 0"/><path d="m32.5 128h16v16h-16zm0 0"/><path d="m.5 96h16v16h-16zm0 0"/><path d="m64.5 96h16v16h-16zm0 0"/></svg>