<svg height="512pt" viewBox="-61 0 512 512" width="512pt" xmlns="http://www.w3.org/2000/svg"><path d="m285 285c0 80.097656-52.5 110.699219-75 127.199219v84.800781c0 8.398438-6.597656 15-15 15s-15-6.601562-15-15v-84.800781c-22.800781-16.5-75-46.800781-75-127.199219 0-8.402344 6.597656-15 15-15s15 6.597656 15 15c0 68.699219 46.5 89.398438 60 102 13.5-12.601562 60-33 60-102 0-8.402344 6.597656-15 15-15s15 6.597656 15 15zm0 0" fill="#c6e2e7"/><path d="m285 285c0 80.097656-52.5 110.699219-75 127.199219v84.800781c0 8.398438-6.597656 15-15 15v-125c13.5-12.601562 60-33 60-102 0-8.402344 6.597656-15 15-15s15 6.597656 15 15zm0 0" fill="#a8d3d8"/><path d="m120 300c-16.570312 0-30-13.429688-30-30v-150l60-30v180c0 16.570312-13.429688 30-30 30zm0 0" fill="#5bc980"/><path d="m150 90c0 51-42.597656 90-90 90l-30-90 30-90c47.699219 0 90 39.300781 90 90zm0 0" fill="#a0deb0"/><path d="m150 90c0 51-42.597656 90-90 90l-30-90zm0 0" fill="#5bc980"/><path d="m60 0v180h-30c-16.5 0-30-13.5-30-30v-120c0-16.5 13.5-30 30-30zm0 0" fill="#deecf1"/><path d="m60 90v90h-30c-16.5 0-30-13.5-30-30v-60zm0 0" fill="#a8d3d8"/><path d="m270 300c16.570312 0 30-13.429688 30-30v-150l-60-30v180c0 16.570312 13.429688 30 30 30zm0 0" fill="#5bc980"/><path d="m240 90c0 51 42.597656 90 90 90l30-90-30-90c-47.699219 0-90 39.300781-90 90zm0 0" fill="#a0deb0"/><path d="m240 90c0 51 42.597656 90 90 90l30-90zm0 0" fill="#5bc980"/><path d="m330 0v180h30c16.5 0 30-13.5 30-30v-120c0-16.5-13.5-30-30-30zm0 0" fill="#deecf1"/><path d="m330 90v90h30c16.5 0 30-13.5 30-30v-60zm0 0" fill="#a8d3d8"/></svg>