<?xml version="1.0" encoding="iso-8859-1"?>
<!-- Generator: Adobe Illustrator 19.0.0, SVG Export Plug-In . SVG Version: 6.00 Build 0)  -->
<svg version="1.1" id="Capa_1" xmlns="http://www.w3.org/2000/svg" xmlns:xlink="http://www.w3.org/1999/xlink" x="0px" y="0px"
	 viewBox="0 0 511.973 511.973" style="enable-background:new 0 0 511.973 511.973;" xml:space="preserve">
<g>
	<path style="fill:#DF4D60;" d="M421.571,161.633c-10.125,59.233-15.537,67.884-50.847,67.884s-47.13-23.834-50.847-67.884
		c4.852-16.411,17.302-29.486,33.457-35.134c11.411-2.913,23.37-2.913,34.781,0C404.268,132.147,416.719,145.222,421.571,161.633z"
		/>
	<g>
		<path style="fill:#FF5364;" d="M489.631,311.349c-20.745,40.342-74.328,80.772-118.908,107.697
			c-44.579-26.924-98.163-67.354-118.908-107.697c-29.749-53.937-29.749-107.785,0-134.797
			c18.751-16.069,44.307-21.671,68.061-14.919c22.022,6.337,40.432,21.519,50.847,41.931c10.415-20.412,28.825-35.594,50.847-41.931
			c23.753-6.752,49.31-1.15,68.061,14.919C519.38,203.564,519.38,257.412,489.631,311.349z"/>
		<path style="fill:#FF5364;" d="M254.826,497.947c-50.317,12.111-116.25,20.86-159.4,6.806
			c-58.915-17.329-97.103-55.517-95.338-95.338c1.766-39.821,43.255-81.417,102.153-64
			c-17.346-58.959,24.135-100.511,64.026-102.188c39.892-1.677,78.027,36.414,95.338,95.382
			C275.695,381.705,266.894,447.735,254.826,497.947z"/>
	</g>
	<g>
		<path style="fill:#FB7B76;" d="M321.625,190.42c-6.798-3.303-14.255-5.026-21.813-5.041c-11.058-0.148-21.797,3.702-30.243,10.84
			c-16.393,14.848-21.698,53.195,5.35,102.215l0.406,0.742c4.731,8.779,10.482,16.969,17.134,24.399
			c3.235,3.505,8.669,3.806,12.271,0.68c3.603-3.125,4.071-8.547,1.058-12.245c-5.754-6.41-10.732-13.477-14.83-21.054l-0.53-0.98
			c-22.546-40.845-18.838-71.768-9.004-80.675c5.199-4.192,11.711-6.412,18.388-6.268c4.894,0.005,9.723,1.119,14.124,3.257
			c2.838,1.38,6.197,1.14,8.811-0.628c2.614-1.768,4.086-4.797,3.862-7.945c-0.224-3.148-2.111-5.937-4.949-7.317L321.625,190.42z"
			/>
		<path style="fill:#FB7B76;" d="M454.754,301.903c-3.9-2.925-9.433-2.135-12.359,1.766c-21.756,26.091-47.601,48.48-76.526,66.295
			c-4.073,2.681-5.202,8.157-2.52,12.231c2.681,4.073,8.157,5.202,12.231,2.52c30.633-18.931,57.977-42.728,80.958-70.453
			c1.403-1.875,2.003-4.231,1.669-6.549S456.629,303.306,454.754,301.903z"/>
		<path style="fill:#FB7B76;" d="M133.977,467.403c-8.598-0.468-17.111-1.95-25.362-4.414l-1.068-0.318
			c-44.835-12.924-64.071-37.411-63.444-50.662c0.717-6.639,3.763-12.81,8.598-17.417c3.455-3.443,7.644-6.059,12.253-7.654
			c4.615-1.589,7.067-6.619,5.478-11.233c-1.589-4.615-6.619-7.067-11.233-5.478c-7.139,2.472-13.626,6.525-18.979,11.855
			c-7.928,7.716-12.803,18.036-13.727,29.06c-1.095,22.069,22.272,52.966,76.058,68.476l0.83,0.247
			c9.547,2.865,19.399,4.592,29.352,5.146h0.627c4.875,0.171,8.966-3.643,9.137-8.519c0.171-4.875-3.643-8.966-8.519-9.137V467.403z
			"/>
		<path style="fill:#FB7B76;" d="M232.131,354.922c-4.823,0.696-8.17,5.169-7.477,9.993c3.056,33.833,0.612,67.937-7.239,100.988
			c-0.987,4.775,2.084,9.447,6.859,10.434c4.775,0.987,9.447-2.084,10.434-6.859c8.268-35.057,10.773-71.226,7.415-107.087
			C241.423,357.57,236.951,354.228,232.131,354.922z"/>
	</g>
	<path style="fill:#59474E;" d="M388.379,8.828v114.759c-0.001,0.977-0.089,1.952-0.265,2.913
		c-1.48,8.447-8.815,14.609-17.39,14.609s-15.911-6.162-17.39-14.609c-0.176-0.961-0.264-1.936-0.265-2.913V8.828
		c0-4.875,3.952-8.828,8.828-8.828h17.655C384.427,0,388.379,3.952,388.379,8.828z"/>
</g>
<g>
</g>
<g>
</g>
<g>
</g>
<g>
</g>
<g>
</g>
<g>
</g>
<g>
</g>
<g>
</g>
<g>
</g>
<g>
</g>
<g>
</g>
<g>
</g>
<g>
</g>
<g>
</g>
<g>
</g>
</svg>
