<svg height="464pt" viewBox="-72 0 464 464" width="464pt" xmlns="http://www.w3.org/2000/svg"><path d="m0 24v440h320v-416h-296c-13.253906 0-24-10.746094-24-24zm0 0" fill="#c4e4e9"/><path d="m0 24c0 13.253906 10.746094 24 24 24h296v-48h-296c-13.253906 0-24 10.746094-24 24zm0 0" fill="#a7d6dd"/><path d="m32 80h256v48h-256zm0 0" fill="#36717a"/><g fill="#6cbbc7"><path d="m24 152h96v16h-96zm0 0"/><path d="m40 184h64v16h-64zm0 0"/><path d="m24 216h48v16h-48zm0 0"/><path d="m88 216h16v16h-16zm0 0"/><path d="m24 248h80v16h-80zm0 0"/><path d="m24 280h64v16h-64zm0 0"/><path d="m24 16h296v16h-296zm0 0"/></g><path d="m88 320c30.929688 0 56 25.070312 56 56s-25.070312 56-56 56-56-25.070312-56-56 25.070312-56 56-56zm0 0" fill="#fdb62f"/><path d="m72 344h32v16h-32zm0 0" fill="#fce9cc"/><path d="m56 376h64v16h-64zm0 0" fill="#fce9cc"/><path d="m160 208v56c0 17.671875 14.328125 32 32 32h32c17.671875 0 32-14.328125 32-32v-56zm0 0" fill="#fce9cc"/><path d="m192 368v-72c-17.671875 0-32-14.328125-32-32v-24h40c17.671875 0 32-14.328125 32-32 0 13.253906 10.746094 24 24 24v32c0 17.671875-14.328125 32-32 32v72c35.347656 0 64-28.652344 64-64v-64c0-44.183594-35.816406-80-80-80s-80 35.816406-80 80v64c0 35.347656 28.652344 64 64 64zm0 0" fill="#a65a14"/><path d="m192 296h32v16c0 8.835938 7.164062 16 16 16h16c17.671875 0 32 14.328125 32 32v104h-160v-104c0-17.671875 14.328125-32 32-32h16c8.835938 0 16-7.164062 16-16zm0 0" fill="#fadbb7"/><path d="m128 464v-104c0-17.671875 14.328125-32 32-32 0 17.671875 14.328125 32 32 32h32c17.671875 0 32-14.328125 32-32 17.671875 0 32 14.328125 32 32v104zm0 0" fill="#ff421d"/><path d="m288 384v80h-32v-48c0-17.671875 14.328125-32 32-32zm0 0" fill="#fce9cc"/><path d="m128 384c17.671875 0 32 14.328125 32 32v48h-32zm0 0" fill="#fce9cc"/></svg>