<?xml version="1.0"?>
<svg xmlns="http://www.w3.org/2000/svg" xmlns:xlink="http://www.w3.org/1999/xlink" version="1.1" id="Layer_1" x="0px" y="0px" viewBox="0 0 280.195 280.195" style="enable-background:new 0 0 280.195 280.195;" xml:space="preserve" width="512px" height="512px" class=""><g transform="matrix(6.12323e-17 1 -1 6.12323e-17 280.195 0)"><g>
	<path style="fill:#C0A04C;" d="M2.528,211.452L228.834,20.027c3.378-3.369,8.838-3.369,12.207,0l36.614,36.526   c3.387,3.36,3.387,8.812,0,12.181L51.34,260.168c-3.369,3.36-8.83,3.36-12.207,0L2.519,223.624   C-0.841,220.264-0.841,214.812,2.528,211.452z" data-original="#C0A04C" class=""/>
	<g>
		<polygon style="fill:#0D573D" points="125.504,153.88 118.836,159.515 140.66,184.613 147.32,178.977   " data-original="#937B3B" class="active-path" data-old_color="#0D593E"/>
		<polygon style="fill:#0D573D" points="156.954,150.152 150.286,155.788 160.647,167.698 167.306,162.071   " data-original="#937B3B" class="active-path" data-old_color="#0D593E"/>
		<polygon style="fill:#0D573D" points="85.504,187.684 78.835,193.329 100.669,218.435 107.337,212.808   " data-original="#937B3B" class="active-path" data-old_color="#0D593E"/>
		<path style="fill:#0D573D" d="M273.087,52.003l-2.818,2.38l9.416,10.825c0.928-2.958,0.324-6.301-2.03-8.646L273.087,52.003z" data-original="#937B3B" class="active-path" data-old_color="#0D593E"/>
		<polygon style="fill:#0D573D" points="116.954,183.957 110.295,189.592 120.664,201.537 127.324,195.893   " data-original="#937B3B" class="active-path" data-old_color="#0D593E"/>
		<polygon style="fill:#0D573D" points="245.495,52.484 238.827,58.111 260.599,83.156 267.259,77.529   " data-original="#937B3B" class="active-path" data-old_color="#0D593E"/>
		<polygon style="fill:#0D573D" points="165.495,120.075 158.836,125.711 180.643,150.8 187.302,145.155   " data-original="#937B3B" class="active-path" data-old_color="#0D593E"/>
		<polygon style="fill:#0D573D" points="236.946,82.552 230.278,88.187 240.604,100.071 247.281,94.427   " data-original="#937B3B" class="active-path" data-old_color="#0D593E"/>
		<polygon style="fill:#0D573D" points="196.954,116.356 190.277,121.983 200.621,133.893 207.289,128.257   " data-original="#937B3B" class="active-path" data-old_color="#0D593E"/>
		<polygon style="fill:#0D573D" points="205.486,86.288 198.836,91.915 220.617,116.978 227.285,111.342   " data-original="#937B3B" class="active-path" data-old_color="#0D593E"/>
	</g>
	<path style="fill:#EFC75E;" d="M271.363,0.084H8.829c-4.83,0-8.751,3.912-8.751,8.751V61.34c0,4.83,3.92,8.751,8.751,8.751h262.534   c4.839,0,8.751-3.92,8.751-8.751V8.835C280.114,3.995,276.193,0.084,271.363,0.084z M271.363,210.104H8.829   c-4.83,0-8.751,3.912-8.751,8.742v52.514c0,4.83,3.92,8.751,8.751,8.751h262.534c4.839,0,8.751-3.92,8.751-8.751v-52.514   C280.114,214.016,276.193,210.104,271.363,210.104z" data-original="#EFC75E" class=""/>
	<path style="fill:#107A09" d="M17.579,35.087h8.751V0.084h-8.751C17.579,0.084,17.579,35.087,17.579,35.087z M43.832,17.585h8.751   V0.084h-8.751V17.585z M70.084,35.087h8.751V0.084h-8.751V35.087z M96.337,17.585h8.751V0.084h-8.751V17.585z M122.59,35.087h8.751   V0.084h-8.751C122.59,0.084,122.59,35.087,122.59,35.087z M148.842,17.585h8.751V0.084h-8.751V17.585z M175.095,35.087h8.751V0.084   h-8.751V35.087z M201.347,17.585h8.751V0.084h-8.751V17.585z M227.6,35.087h8.751V0.084H227.6V35.087z M253.861,0.084v17.502h8.751   V0.084H253.861z M17.579,280.111h8.751v-35.003h-8.751C17.579,245.108,17.579,280.111,17.579,280.111z M43.832,280.111h8.751   v-17.502h-8.751V280.111z M70.084,280.111h8.751v-35.003h-8.751V280.111z M96.337,280.111h8.751v-17.502h-8.751V280.111z    M122.59,280.111h8.751v-35.003h-8.751C122.59,245.108,122.59,280.111,122.59,280.111z M148.842,280.111h8.751v-17.502h-8.751   V280.111z M175.095,280.111h8.751v-35.003h-8.751V280.111z M201.347,280.111h8.751v-17.502h-8.751V280.111z M227.6,280.111h8.751   v-35.003H227.6V280.111z M253.861,280.111h8.751v-17.502h-8.751V280.111z" data-original="#B39546" class="" data-old_color="#107B09"/>
</g></g> </svg>
