<svg height="480pt" viewBox="0 -83 480.3 480" width="480pt" xmlns="http://www.w3.org/2000/svg"><path d="m480.300781 80.148438v193.402343c.003907 22.09375-17.90625 40.003907-40 40h-360.300781c-22.09375.003907-40.007812-17.90625-40-40h360.300781c22.09375.003907 40.003907-17.90625 40-40v-193.402343c22.09375-.003907 40.003907 17.90625 40 40zm0 0" fill="#fedb41"/><path d="m440.300781 40.148438v193.402343c.003907 22.09375-17.90625 40.003907-40 40h-360.300781c-22.09375.003907-40.0078125-17.90625-40-40v-193.402343c-.0078125-22.09375 17.90625-40.003907 40-40h360.300781c22.09375-.003907 40.003907 17.90625 40 40zm-39.601562 150.101562v-106.800781l-40.300781-43.097657h-279.796876l-40.800781 43.097657v106.800781l40.800781 43.101562h279.296876zm0 0" fill="#00acea"/><path d="m400.699219 83.449219v106.800781l-40.898438 43.101562h-279.199219l-40.902343-43.101562v-106.800781l40.902343-43.097657h279.796876zm0 0" fill="#00efd1"/><path d="m259.800781 86.148438c5.523438 0 10-4.476563 10-10 0-5.519532-4.476562-10-10-10h-79.199219c-5.523437 0-10 4.480468-10 10 0 5.523437 4.476563 10 10 10h22.699219c9.382813-.015626 17.910157 5.460937 21.800781 14h-44.402343c-5.523438 0-10 4.480468-10 10 0 5.523437 4.476562 10 10 10h44.402343c-3.921874 8.515624-12.429687 13.976562-21.800781 14h-22.699219c-4.101562.003906-7.789062 2.507812-9.308593 6.316406s-.566407 8.160156 2.40625 10.984375l56.601562 53.5c1.871094 1.75 4.339844 2.714843 6.898438 2.699219 2.75-.015626 5.378906-1.132813 7.300781-3.097657 1.820312-1.921875 2.800781-4.488281 2.726562-7.132812-.078124-2.644531-1.199218-5.152344-3.125-6.96875l-38.402343-36.300781c19.480469-1.125 35.910156-14.910157 40.402343-33.898438h13.699219c5.523438 0 10-4.476562 10-10s-4.476562-10-10-10h-13.699219c-1.164062-4.980469-3.195312-9.722656-6-14h19.699219zm0 0" fill="#00acea"/></svg>