<svg height="511pt" viewBox="-45 0 511 511.99929" width="511pt" xmlns="http://www.w3.org/2000/svg"><path d="m349.109375 435.996094c0 8.398437-6.597656 15-15 15h-247.207031c-8.402344 0-15-6.601563-15-15 0-8.402344 6.597656-15 15-15h247.207031c8.402344 0 15 6.597656 15 15zm0 0" fill="#53433f"/><path d="m349.109375 435.996094c0 8.398437-6.597656 15-15 15h-123.601563v-30h123.601563c8.402344 0 15 6.597656 15 15zm0 0" fill="#3e322e"/><path d="m75.515625 512c-.90625 0-1.84375-.089844-2.78125-.265625-8.144531-1.523437-13.507813-9.359375-11.96875-17.503906l28.125-151.003907c1.539063-8.132812 9.359375-13.40625 17.507813-11.96875 8.144531 1.523438 13.503906 9.359376 11.96875 17.503907l-28.128907 151.003906c-1.347656 7.207031-7.644531 12.234375-14.722656 12.234375zm0 0" fill="#53433f"/><path d="m345.496094 512c-7.074219 0-13.375-5.023438-14.722656-12.230469l-28.125-151.007812c-1.539063-8.144531 3.824218-15.980469 11.96875-17.503907 8.320312-1.449218 15.996093 3.835938 17.503906 11.96875l28.128906 151.003907c1.535156 8.144531-3.824219 15.980469-11.96875 17.503906-.9375.175781-1.875.265625-2.785156.265625zm0 0" fill="#3e322e"/><path d="m154.269531 90.984375c-.90625 0-1.847656-.085937-2.78125-.261719-8.148437-1.523437-13.507812-9.363281-11.96875-17.507812l11.25-61c1.523438-8.117188 9.285157-13.433594 17.503907-11.96875 8.144531 1.523437 13.507812 9.359375 11.96875 17.503906l-11.25 61.003906c-1.347657 7.207032-7.648438 12.230469-14.722657 12.230469zm0 0" fill="#53433f"/><path d="m266.746094 90.984375c-7.078125 0-13.375-5.023437-14.722656-12.230469l-11.25-61.003906c-1.539063-8.144531 3.820312-15.980469 11.964843-17.503906 8.265625-1.480469 15.984375 3.851562 17.507813 11.96875l11.25 61c1.539062 8.148437-3.824219 15.984375-11.96875 17.507812-.9375.175782-1.875.261719-2.78125.261719zm0 0" fill="#3e322e"/><path d="m405.511719 60.984375h-390.011719c-8.402344 0-15 6.597656-15 15v270.007813c0 8.402343 6.597656 15.003906 15 15.003906h390.011719c8.402343 0 15-6.601563 15-15.003906v-270.007813c0-8.402344-6.597657-15-15-15zm0 0" fill="#cc2e43"/><path d="m420.511719 75.984375v270.007813c0 8.402343-6.597657 15.003906-15 15.003906h-195.003907v-300.011719h195.003907c8.402343 0 15 6.597656 15 15zm0 0" fill="#ae2538"/><path d="m390.511719 90.984375v189.007813l-45 28.5-135.003907-4.5-144.304687-4.800782-35.703125-31.203125v-177.003906zm0 0" fill="#53433f"/><path d="m135.503906 195.988281c-24.816406 0-45-20.1875-45-45 0-24.816406 20.183594-45.003906 45-45.003906s45 20.1875 45 45.003906c0 24.8125-20.183594 45-45 45zm0 0" fill="#fdbf00"/><path d="m390.511719 90.984375v189.007813l-45 28.5-135.003907-4.5v-213.007813zm0 0" fill="#3e322e"/><path d="m390.511719 279.992188v51h-360.011719v-63.003907c17.101562-29.699219 41.402344-57 75.003906-57 36.898438 0 63 33 80.101563 66.003907 6.902343-14.402344 15.300781-29.402344 24.902343-43.203126 19.5-29.101562 45-52.800781 75-52.800781 41.703126 0 80.105469 53.402344 105.003907 99.003907zm0 0" fill="#b5baf3"/><path d="m390.511719 279.992188v51h-180.003907v-97.203126c19.5-29.101562 45-52.800781 75-52.800781 41.703126 0 80.105469 53.402344 105.003907 99.003907zm0 0" fill="#979fef"/></svg>