<?xml version="1.0" encoding="iso-8859-1"?>
<!-- Generator: Adobe Illustrator 18.0.0, SVG Export Plug-In . SVG Version: 6.00 Build 0)  -->
<!DOCTYPE svg PUBLIC "-//W3C//DTD SVG 1.1//EN" "http://www.w3.org/Graphics/SVG/1.1/DTD/svg11.dtd">
<svg version="1.1" id="Capa_1" xmlns="http://www.w3.org/2000/svg" xmlns:xlink="http://www.w3.org/1999/xlink" x="0px" y="0px"
	 viewBox="0 0 297 297" style="enable-background:new 0 0 297 297;" xml:space="preserve">
<g>
	<g>
		<g>
			<path style="fill:#CC5440;" d="M281.949,31.693c1.132-1.132,2.966-1.132,4.098,0c1.132,1.132,1.132,2.966,0,4.098
				L117.764,204.072c-0.482,0.482-1.092,0.746-1.719,0.817v16.137L292.229,44.842V17.194C292.229,7.698,284.531,0,275.035,0
				L133.239,0c-9.496,0-17.194,7.698-17.194,17.194v180.403L281.949,31.693z"/>
		</g>
		<g>
			<path style="fill:#B23E2F;" d="M292.229,148.68v-8.118l-73.092,73.09c-0.566,0.566-1.307,0.849-2.049,0.849
				c-0.741,0-1.483-0.283-2.049-0.849c-1.132-1.132-1.132-2.966,0-4.098l77.189-77.188V77.284L134.215,235.298
				c-0.566,0.566-1.307,0.849-2.049,0.849c-0.741,0-1.483-0.283-2.049-0.849c-1.132-1.132-1.132-2.966,0-4.098L292.229,69.089
				V53.038L116.045,229.222v27.649c0,9.496,7.698,17.194,17.194,17.194h33.607L292.229,148.68z"/>
		</g>
		<g>
			<path style="fill:#CC5440;" d="M255.431,217.403c-0.566,0.566-1.307,0.849-2.049,0.849c-0.741,0-1.483-0.283-2.049-0.849
				c-1.132-1.132-1.132-2.966,0-4.098l40.896-40.896v-15.534L175.04,274.064h99.995c9.496,0,17.194-7.698,17.194-17.194v-76.266
				L255.431,217.403z"/>
		</g>
	</g>
	<g>
		<g>
			<path style="fill:#A0332B;" d="M159.994,297H28.629c-13.155,0-23.858-10.704-23.858-23.859V46.151
				c0-13.155,10.702-23.859,23.858-23.859h131.365c13.155,0,23.859,10.704,23.859,23.859v226.99
				C183.853,286.296,173.149,297,159.994,297z M28.629,29.247c-9.32,0-16.903,7.583-16.903,16.904v226.99
				c0,9.322,7.583,16.904,16.903,16.904h131.365c9.322,0,16.904-7.583,16.904-16.904V46.151c0-9.322-7.583-16.904-16.904-16.904
				H28.629z"/>
		</g>
		<g>
			<path style="fill:#FFFFFF;" d="M176.898,46.151c0-9.322-7.583-16.904-16.904-16.904H28.629c-9.32,0-16.903,7.583-16.903,16.904
				v200.428L176.898,81.407V46.151z"/>
		</g>
		<g>
			<path style="fill:#DDDDDD;" d="M11.726,246.579v26.562c0,9.322,7.583,16.904,16.903,16.904h131.365
				c9.322,0,16.904-7.583,16.904-16.904V81.407L11.726,246.579z"/>
		</g>
	</g>
	<g>
		<path style="fill:#D95459;" d="M132.562,150.083c0-11.591-8.563-19.125-19.125-19.125s-19.125,8.563-19.125,19.125
			c0-10.563-8.563-19.125-19.125-19.125s-19.125,6.955-19.125,19.125c0,19.705,38.25,38.25,38.25,38.25
			S132.562,170.368,132.562,150.083z"/>
	</g>
	<g>
		<path style="fill:#D95459;" d="M46.232,46.633c0-3.512-2.595-5.796-5.796-5.796c-3.201,0-5.796,2.595-5.796,5.796
			c0-3.201-2.595-5.796-5.796-5.796s-5.796,2.107-5.796,5.796c0,5.971,11.591,11.591,11.591,11.591S46.232,52.78,46.232,46.633z"/>
	</g>
	<g>
		<path style="fill:#D95459;" d="M142.392,272.659c0,3.512,2.595,5.796,5.796,5.796s5.796-2.595,5.796-5.796
			c0,3.201,2.595,5.796,5.796,5.796c3.201,0,5.796-2.107,5.796-5.796c0-5.971-11.591-11.591-11.591-11.591
			S142.392,266.512,142.392,272.659z"/>
	</g>
</g>
<g>
</g>
<g>
</g>
<g>
</g>
<g>
</g>
<g>
</g>
<g>
</g>
<g>
</g>
<g>
</g>
<g>
</g>
<g>
</g>
<g>
</g>
<g>
</g>
<g>
</g>
<g>
</g>
<g>
</g>
</svg>
