<?xml version="1.0" encoding="iso-8859-1"?>
<!-- Generator: Adobe Illustrator 19.0.0, SVG Export Plug-In . SVG Version: 6.00 Build 0)  -->
<svg version="1.1" id="Capa_1" xmlns="http://www.w3.org/2000/svg" xmlns:xlink="http://www.w3.org/1999/xlink" x="0px" y="0px"
	 viewBox="0 0 512 512" style="enable-background:new 0 0 512 512;" xml:space="preserve">
<polygon style="fill:#E6F9FF;" points="212,267 272,267 272,227 482,227 482,267 512,267 512,25 0,25 0,435 212,435 "/>
<polygon style="fill:#ACE3FC;" points="212,267 272,267 272,227 482,227 482,55 30,55 30,355 212,355 "/>
<polygon style="fill:#CCEFFF;" points="272,267 272,227 482,227 482,267 512,267 512,25 256,25 256,267 "/>
<polygon style="fill:#86D6F2;" points="272,267 272,227 482,227 482,55 256,55 256,267 "/>
<polygon style="fill:#66E26F;" points="212,267 272,267 272,244.787 253.5,263.287 198.5,208.287 51.787,355 212,355 "/>
<circle style="fill:#FFDC40;" cx="120" cy="145" r="45"/>
<g>
	<polygon style="fill:#48CC4E;" points="272,267 272,244.787 256,260.787 256,267 	"/>
	<polygon style="fill:#48CC4E;" points="482,227 482,198.787 400,116.787 289.787,227 	"/>
</g>
<rect x="242" y="297" style="fill:#7D8AFF;" width="270" height="160"/>
<g>
	<path style="fill:#CCEFFF;" d="M452,347H302v-90h150V347z"/>
	<path style="fill:#CCEFFF;" d="M452,487H302v-80h150V487z"/>
</g>
<g>
</g>
<g>
</g>
<g>
</g>
<g>
</g>
<g>
</g>
<g>
</g>
<g>
</g>
<g>
</g>
<g>
</g>
<g>
</g>
<g>
</g>
<g>
</g>
<g>
</g>
<g>
</g>
<g>
</g>
</svg>
