<svg height="511pt" viewBox="0 -132 511.99651 511" width="511pt" xmlns="http://www.w3.org/2000/svg"><path d="m358.382812 75.28125c19.710938 4.679688 40.523438-.539062 56.492188-12.992188 13.335938-10.398437 23.292969-38.859374 33.289062-49.292968-31.390624 5.863281-102.652343 17.433594-145.933593 24.886718 15.660156 13.796876 42.433593 34.140626 56.152343 37.398438zm0 0" fill="#b02721"/><path d="m462.664062 1.546875c-11.472656 3.664063-29.207031 31.230469-49.925781 47.378906-15.96875 12.453125-36.78125 17.671875-56.492187 12.992188-14.019532-3.328125-39.042969-10.496094-55.027344-24.894531-7.980469-7.183594-18.308594-11.21875-29.042969-10.769532-15.15625.65625-36.304687 4.378906-51.585937 18.378906l-79.382813 55.566407c-5.78125 4.054687-12.675781 6.222656-19.738281 6.222656h-42.113281s-79.355469-2.203125-79.355469 52.964844v-1.808594c0 7.050781 2.832031 13.742187 7.9375 18.617187 1.824219 1.746094 3.96875 16.59375 6.371094 18.5 25.492187 20.265626 57.429687 35.308594 89.992187 35.308594h363.757813c11.75 0 23.425781-9.65625 32.023437-17.65625 5.90625-5.480468 11.890625-25.003906 11.890625-35.308594v-79.441406s1.785156-56.902344-26.058594-89.613281c-5.65625-6.648437-14.933593-9.082031-23.25-6.4375zm0 0" fill="#dd352e"/><path d="m105.835938 154.972656c0-16.972656-2.433594-33.269531-6.769532-48.550781h-19.710937s-78.394531-2.117187-79.355469 52.011719c.230469 6.726562 3 13.089844 7.890625 17.761718 1.828125 1.746094 4 3.597657 6.402344 5.507813 23.417969 18.613281 52.308593 28.785156 82.109375 30.328125 6.019531-17.664062 9.433594-36.878906 9.433594-57.058594zm0 0" fill="#b02721"/><g fill="#e7eced"><path d="m202.9375 141.730469c-2.261719 0-4.519531-.863281-6.242188-2.585938l-44.65625-44.65625c-3.453124-3.449219-3.453124-9.027343 0-12.480469 3.441407-3.453124 9.03125-3.453124 12.480469 0l44.65625 44.65625c3.453125 3.453126 3.453125 9.03125 0 12.480469-1.71875 1.722657-3.980469 2.585938-6.238281 2.585938zm0 0"/><path d="m238.246094 115.25c-2.261719 0-4.519532-.863281-6.242188-2.585938l-43.617187-43.613281c-3.449219-3.453125-3.449219-9.03125 0-12.484375 3.445312-3.449218 9.039062-3.449218 12.484375 0l43.613281 43.617188c3.453125 3.449218 3.453125 9.03125 0 12.480468-1.71875 1.722657-3.980469 2.585938-6.238281 2.585938zm0 0"/><path d="m273.554688 88.769531c-2.261719 0-4.519532-.863281-6.242188-2.585937l-42.777344-42.777344c-3.449218-3.449219-3.449218-9.03125 0-12.480469 3.441406-3.453125 9.039063-3.453125 12.480469 0l42.777344 42.777344c3.453125 3.449219 3.453125 9.027344 0 12.480469-1.722657 1.722656-3.980469 2.585937-6.238281 2.585937zm0 0"/></g><path d="m450.09375 132.90625c0 24.375-19.757812 44.132812-44.132812 44.132812s-44.136719-19.757812-44.136719-44.132812 19.761719-44.136719 44.136719-44.136719 44.132812 19.761719 44.132812 44.136719zm0 0" fill="#f7e6a1"/><path d="m500.09375 200.441406c-8.609375 7.996094-20.285156 11.90625-32.035156 11.90625h-363.757813c-19.515625 0-38.777343-3.804687-56.582031-11.148437-.75-.308594-1.535156-.554688-2.277344-.871094-1.304687-.574219-2.558594-1.261719-3.847656-1.871094-9.621094-4.511719-18.800781-10.011719-27.230469-16.703125-2.429687-1.921875-4.617187-3.796875-6.472656-5.570312-2.523437-2.417969-4.457031-5.296875-5.796875-8.429688-.109375-.246094-.152344-.511718-.25-.757812-.519531-1.296875-.960938-2.632813-1.253906-4.007813-.105469-.503906-.121094-1.03125-.203125-1.546875-.128907-.871094-.3437502-1.171875-.386719-2.054687v33.5c0 7.050781 2.832031 13.742187 7.9375 18.613281 1.824219 1.75 3.96875 3.601562 6.371094 5.511719 25.492187 20.265625 57.429687 30.644531 90 30.644531h363.757812c11.75 0 23.429688-3.910156 32.027344-11.90625 5.894531-5.472656 11.878906-13.097656 11.878906-23.402344v-35.308594c0 10.304688-5.984375 17.929688-11.878906 23.402344zm0 0" fill="#e7eced"/></svg>