<svg height="430pt" viewBox="0 -136 430.08 430" width="430pt" xmlns="http://www.w3.org/2000/svg"><path d="m423.253906 65.550781c0 2.511719-2.035156 4.546875-4.546875 4.546875h-25.039062c-2.511719 0-4.546875-2.039062-4.546875-4.546875v-18.210937c0-2.515625 2.035156-4.550782 4.546875-4.550782h25.039062c2.511719 0 4.546875 2.035157 4.546875 4.550782zm0 0" fill="#00e7ff"/><path d="m418.707031 76.925781h-25.039062c-6.273438 0-11.375-5.105469-11.375-11.375v-18.210937c0-6.273438 5.101562-11.375 11.375-11.375h25.039062c6.273438 0 11.371094 5.101562 11.371094 11.375v18.210937c0 6.269531-5.097656 11.375-11.371094 11.375zm-22.761719-13.65625h20.480469v-13.652343h-20.480469zm0 0" fill="#602f75"/><path d="m40.960938 47.339844c0-2.515625-2.035157-4.550782-4.546876-4.550782h-25.039062c-2.515625 0-4.546875 2.035157-4.546875 4.550782v18.210937c0 2.511719 2.035156 4.546875 4.546875 4.546875h25.035156c2.515625 0 4.546875-2.039062 4.546875-4.546875v-18.210937zm0 0" fill="#00e7ff"/><path d="m36.414062 76.925781h-25.039062c-6.277344 0-11.375-5.105469-11.375-11.375v-18.210937c0-6.273438 5.097656-11.375 11.375-11.375h25.039062c6.273438 0 11.371094 5.101562 11.371094 11.375v18.210937c0 6.269531-5.097656 11.375-11.371094 11.375zm-22.761718-13.65625h20.480468v-13.652343h-20.480468zm0 0" fill="#602f75"/><path d="m245.761719 49.617188c-6.078125-10.753907-19.542969-17.625-32.542969-17.625-13.128906 0-24.582031 7.382812-30.613281 18.320312" fill="#fff"/><path d="m182.601562 57.136719c-1.113281 0-2.246093-.273438-3.296874-.847657-3.300782-1.820312-4.5-5.976562-2.679688-9.277343 7.433594-13.472657 21.460938-21.84375 36.59375-21.84375 15.886719 0 31.351562 8.476562 38.480469 21.089843 1.859375 3.28125.699219 7.445313-2.582031 9.300782-3.273438 1.851562-7.445313.695312-9.296876-2.582032-4.714843-8.339843-15.65625-14.160156-26.601562-14.160156-10.167969 0-19.605469 5.667969-24.632812 14.789063-1.246094 2.257812-3.578126 3.53125-5.984376 3.53125zm0 0" fill="#602f75"/><path d="m375.675781 18.597656c6.746094 4.808594 12.492188 11.070313 16.671875 18.589844 3.203125 5.757812 5.492188 12.160156 5.90625 18.984375.730469 11.914063.820313 23.824219.695313 33.46875-.304688 23.320313-12.574219 45.445313-33.019531 55.707031-.074219.035156-.152344.074219-.230469.113282-14.632813 7.265624-31.890625 6.4375-46.65625-.558594-21.820313-10.335938-56.320313-35.113282-71.464844-91.605469-2.835937-10.574219-1.8125-22.085937 3.910156-31.421875 3.917969-6.386719 10.179688-12.121094 20.175781-13.488281 15.726563-2.148438 48.621094-1.59375 70.832032-.882813" fill="#ffe600"/><path d="m343.464844 157.386719c-9.152344 0-18.472656-2.113281-27.339844-6.316407-21.140625-10.011718-59.003906-35.800781-75.136719-96.007812-3.453125-12.863281-1.746093-26.261719 4.679688-36.753906 5.804687-9.472656 14.476562-15.238282 25.078125-16.683594 15.867187-2.171875 47.90625-1.71875 71.964844-.949219 3.769531.121094 6.722656 3.273438 6.601562 7.042969-.113281 3.691406-3.148438 6.609375-6.8125 6.609375-.074219 0-.148438 0-.226562-.003906-33.273438-1.050781-58.027344-.765625-69.679688.824219-6.59375.902343-11.59375 4.269531-15.289062 10.292968-4.480469 7.3125-5.621094 16.820313-3.132813 26.085938 14.714844 54.898437 48.792969 78.199218 67.792969 87.203125 13.640625 6.464843 28.46875 6.6875 40.703125.617187 17.691406-8.882812 29.171875-28.386718 29.453125-49.800781.160156-11.902344-.074219-22.988281-.679688-32.957031-.3125-5.203125-2.019531-10.613282-5.0625-16.089844-3.597656-6.472656-8.53125-11.972656-14.664062-16.347656-3.066406-2.1875-3.78125-6.449219-1.59375-9.519532 2.191406-3.066406 6.453125-3.789062 9.523437-1.59375 7.792969 5.558594 14.082031 12.566407 18.667969 20.828126 4.039062 7.277343 6.3125 14.644531 6.753906 21.890624.628906 10.300782.867188 21.730469.707032 33.964844-.347657 26.453125-14.785157 50.679688-36.78125 61.71875-7.984376 3.972656-16.679688 5.941406-25.527344 5.945313zm0 0" fill="#602f75"/><path d="m368.085938 84.183594c-.027344 0-.050782 0-.078126 0-3.773437-.042969-6.792968-3.140625-6.746093-6.910156.066406-5.457032-.039063-10.476563-.308594-14.917969-.113281-1.839844-.746094-3.804688-1.875-5.84375-3.351563-6.035157-9.953125-9.933594-17.21875-10.164063-3.765625-.117187-6.722656-3.273437-6.601563-7.039062.113282-3.773438 3.386719-6.765625 7.042969-6.605469 12.03125.382813 23.039063 6.964844 28.710938 17.175781 2.128906 3.835938 3.328125 7.75 3.566406 11.640625.292969 4.777344.402344 10.132813.332031 15.921875-.042968 3.738282-3.089844 6.742188-6.824218 6.742188zm0 0" fill="#ea3457"/><path d="m181.742188 53.296875c2.835937-10.578125 1.8125-22.089844-3.910157-31.421875-3.917969-6.390625-10.179687-12.125-20.175781-13.488281-15.726562-2.152344-48.617188-1.59375-70.832031-.886719-20.4375.652344-39.734375 11.480469-49.851563 29.683594-3.199218 5.761718-5.492187 12.160156-5.90625 18.988281-.730468 11.910156-.820312 23.820313-.695312 33.464844.304687 23.324219 12.574218 45.449219 33.019531 55.707031.074219.039062.152344.078125.230469.117188 14.632812 7.265624 31.890625 6.4375 46.65625-.558594 21.820312-10.335938 56.324218-35.113282 71.464844-91.605469zm0 0" fill="#ffe600"/><path d="m85.78125 157.402344c-8.773438 0-17.367188-1.9375-25.195312-5.828125-22.253907-11.164063-36.691407-35.390625-37.039063-61.847657-.160156-12.230468.082031-23.660156.707031-33.96875.441406-7.242187 2.714844-14.609374 6.753906-21.886718 10.964844-19.730469 32.273438-32.449219 55.597657-33.191406 24.082031-.7617192 56.101562-1.226563 71.980469.945312 10.585937 1.445312 19.261718 7.214844 25.070312 16.679688 6.425781 10.492187 8.132812 23.890624 4.683594 36.761718-16.144532 60.214844-54.011719 85.996094-75.144532 96.007813-8.902343 4.21875-18.261718 6.328125-27.414062 6.328125zm36.390625-143.703125c-10.191406 0-21.992187.207031-35.125.625-18.558594.589843-35.460937 10.621093-44.105469 26.179687-3.042968 5.476563-4.746094 10.886719-5.0625 16.085938-.605468 9.972656-.839844 21.058594-.679687 32.957031.28125 21.414063 11.769531 40.925781 29.253906 49.699219 12.425781 6.167968 27.269531 5.945312 40.894531-.515625 19.007813-9 53.085938-32.292969 67.804688-87.199219 2.480468-9.273438 1.339844-18.78125-3.140625-26.089844-3.699219-6.023437-8.691407-9.390625-15.269531-10.292968-7.0625-.960938-18.921876-1.449219-34.570313-1.449219zm59.574219 39.597656h.066406zm0 0" fill="#602f75"/></svg>