<svg height="512pt" viewBox="0 -128 512 512" width="512pt" xmlns="http://www.w3.org/2000/svg"><path d="m304 0h-160v128h160c35.347656 0 64-28.652344 64-64s-28.652344-64-64-64zm0 0" fill="#cbc4e8"/><path d="m304 96h-160v32h160c35.347656 0 64-28.652344 64-64 0-5.523438-.699219-10.886719-2.015625-16-7.105469 27.605469-32.164063 48-61.984375 48zm0 0" fill="#b1a7dc"/><path d="m208 64c0 35.347656-28.652344 64-64 64s-64-28.652344-64-64 28.652344-64 64-64 64 28.652344 64 64zm0 0" fill="#9689d0"/><g fill="#7c6cc4"><path d="m168 64c0 13.253906-10.746094 24-24 24s-24-10.746094-24-24 10.746094-24 24-24 24 10.746094 24 24zm0 0"/><path d="m504 71.667969c-4.417969 0-8-3.582031-8-8v-31.667969c0-4.417969 3.582031-8 8-8s8 3.582031 8 8v31.667969c0 4.417969-3.582031 8-8 8zm0 0"/><path d="m280 71.667969c-4.417969 0-8-3.582031-8-8v-31.667969c0-4.417969 3.582031-8 8-8s8 3.582031 8 8v31.667969c0 4.417969-3.582031 8-8 8zm0 0"/><path d="m456 72c-4.417969 0-8-3.582031-8-8v-32c0-4.417969 3.582031-8 8-8s8 3.582031 8 8v32c0 4.417969-3.582031 8-8 8zm0 0"/><path d="m392 72c-4.417969 0-8-3.582031-8-8v-32c0-4.417969 3.582031-8 8-8s8 3.582031 8 8v32c0 4.417969-3.582031 8-8 8zm0 0"/><path d="m328 72c-4.417969 0-8-3.582031-8-8v-32c0-4.417969 3.582031-8 8-8s8 3.582031 8 8v32c0 4.417969-3.582031 8-8 8zm0 0"/></g><path d="m448 128h-240c35.347656 0 64-28.652344 64-64h240c0 35.347656-28.652344 64-64 64zm0 0" fill="#9689d0"/><path d="m224 128h-160v128h160c35.347656 0 64-28.652344 64-64s-28.652344-64-64-64zm0 0" fill="#ffe6ab"/><path d="m224 232h-160v24h160c35.347656 0 64-28.652344 64-64 0-4.105469-.402344-8.109375-1.140625-12-5.617187 29.609375-31.617187 52-62.859375 52zm0 0" fill="#ffd982"/><path d="m128 192c0 35.347656-28.652344 64-64 64s-64-28.652344-64-64 28.652344-64 64-64 64 28.652344 64 64zm0 0" fill="#ffcc58"/><path d="m88 192c0 13.253906-10.746094 24-24 24s-24-10.746094-24-24 10.746094-24 24-24 24 10.746094 24 24zm0 0" fill="#ffc02e"/><path d="m400 128h-160v128h160c35.347656 0 64-28.652344 64-64s-28.652344-64-64-64zm0 0" fill="#f9dbe9"/><path d="m400 232h-160v24h160c35.347656 0 64-28.652344 64-64 0-4.105469-.402344-8.109375-1.140625-12-5.617187 29.609375-31.617187 52-62.859375 52zm0 0" fill="#f4b7d3"/><path d="m304 192c0 35.347656-28.652344 64-64 64s-64-28.652344-64-64 28.652344-64 64-64 64 28.652344 64 64zm0 0" fill="#ee93bd"/><path d="m264 192c0 13.253906-10.746094 24-24 24s-24-10.746094-24-24 10.746094-24 24-24 24 10.746094 24 24zm0 0" fill="#e96fa7"/></svg>