<?xml version="1.0" encoding="iso-8859-1"?>
<!-- Generator: Adobe Illustrator 19.0.0, SVG Export Plug-In . SVG Version: 6.00 Build 0)  -->
<svg version="1.1" id="Capa_1" xmlns="http://www.w3.org/2000/svg" xmlns:xlink="http://www.w3.org/1999/xlink" x="0px" y="0px"
	 viewBox="0 0 512 512" style="enable-background:new 0 0 512 512;" xml:space="preserve">
<path style="fill:#FDBE40;" d="M512,199.458c0,2.804-1.9,5.216-4.601,5.97c-7.191,2.008-12.465,8.607-12.465,16.439
	c0,7.831,5.275,14.431,12.465,16.439c2.701,0.754,4.601,3.166,4.601,5.97v23.45c0,2.804-1.9,5.216-4.601,5.97
	c-7.191,2.008-12.465,8.607-12.465,16.439c0,7.831,5.275,14.431,12.465,16.439c2.701,0.754,4.601,3.166,4.601,5.97v23.089
	c0,3.04-2.211,5.636-5.216,6.098c-14.675,2.25-26.271,13.847-28.521,28.521c-0.461,3.005-3.057,5.216-6.097,5.216l-432.332-0.001
	c-3.04,0-5.636-2.211-6.097-5.216c-2.25-14.675-13.846-26.27-28.521-28.521C2.212,341.269,0,338.673,0,335.631v-23.089
	c0-2.804,1.9-5.216,4.601-5.97c7.191-2.008,12.465-8.607,12.465-16.439c0-7.831-5.275-14.431-12.465-16.439
	C1.9,272.941,0,270.529,0,267.725v-23.45c0-2.804,1.9-5.216,4.601-5.97c7.191-2.008,12.465-8.607,12.465-16.439
	c0-7.831-5.275-14.431-12.465-16.439C1.9,204.674,0,202.262,0,199.458v-23.089c0-3.04,2.211-5.636,5.216-6.097
	c14.675-2.25,26.271-13.847,28.522-28.522c0.46-3.005,3.057-5.216,6.098-5.216l432.332,0.001c3.04,0,5.636,2.211,6.097,5.216
	c2.25,14.674,13.846,26.27,28.521,28.521c3.005,0.46,5.216,3.057,5.216,6.098L512,199.458z"/>
<path style="fill:#FFA912;" d="M507.399,306.572c-7.191-2.008-12.465-8.607-12.465-16.439c0-7.831,5.275-14.431,12.465-16.439
	c2.701-0.754,4.601-3.166,4.601-5.97v-23.45c0-2.804-1.9-5.216-4.601-5.97c-7.191-2.008-12.465-8.607-12.465-16.439
	c0-7.831,5.275-14.431,12.465-16.439c2.701-0.754,4.601-3.166,4.601-5.97v-23.089c0-3.04-2.211-5.636-5.216-6.098
	c-14.674-2.25-26.27-13.846-28.52-28.521c-0.461-3.005-3.058-5.216-6.098-5.216l-432.332-0.001l0,0l411.728,0.001
	c3.04,0,5.636,2.211,6.098,5.216c2.25,14.674,13.846,26.27,28.521,28.521c3.005,0.46,5.216,3.057,5.216,6.098v23.089
	c0,2.804-1.9,5.216-4.601,5.97c-7.191,2.008-12.465,8.607-12.465,16.439c0,7.831,5.275,14.431,12.465,16.439
	c2.701,0.754,4.601,3.166,4.601,5.97v23.45c0,2.804-1.9,5.216-4.601,5.97c-7.191,2.008-12.465,8.607-12.465,16.439
	c0,7.831,5.275,14.431,12.465,16.439c2.701,0.754,4.601,3.166,4.601,5.97v23.089c0,3.04-2.211,5.636-5.216,6.098
	c-14.675,2.25-26.271,13.847-28.522,28.521c-0.46,3.005-3.057,5.216-6.097,5.216h20.603c3.04,0,5.636-2.211,6.097-5.216
	c2.25-14.675,13.847-26.271,28.521-28.521c3.005-0.46,5.217-3.057,5.216-6.098v-23.089C512,309.739,510.099,307.327,507.399,306.572
	z"/>
<path style="fill:#FFD883;" d="M454.619,341.334H57.381c-3.414,0-6.181-2.767-6.181-6.181V176.849c0-3.414,2.767-6.181,6.181-6.181
	h397.238c3.414,0,6.181,2.767,6.181,6.181v158.304C460.8,338.566,458.033,341.334,454.619,341.334z"/>
<g>
	<path style="fill:#394D5C;" d="M85.332,282.407c-4.268,0-7.726,3.459-7.726,7.726v25.599c0,4.267,3.458,7.726,7.726,7.726
		c4.268,0,7.726-3.459,7.726-7.726v-25.599C93.058,285.866,89.6,282.407,85.332,282.407z"/>
	<path style="fill:#394D5C;" d="M119.468,282.407c-4.268,0-7.726,3.459-7.726,7.726v25.599c0,4.267,3.458,7.726,7.726,7.726
		c4.268,0,7.726-3.459,7.726-7.726v-25.599C127.194,285.866,123.735,282.407,119.468,282.407z"/>
	<path style="fill:#394D5C;" d="M153.602,282.407c-4.267,0-7.726,3.459-7.726,7.726v25.599c0,4.267,3.459,7.726,7.726,7.726
		c4.268,0,7.726-3.459,7.726-7.726v-25.599C161.328,285.866,157.87,282.407,153.602,282.407z"/>
	<path style="fill:#394D5C;" d="M187.737,282.407c-4.268,0-7.726,3.459-7.726,7.726v25.599c0,4.267,3.458,7.726,7.726,7.726
		c4.268,0,7.726-3.459,7.726-7.726v-25.599C195.463,285.866,192.005,282.407,187.737,282.407z"/>
</g>
<g>
	<path style="fill:#FFA912;" d="M350.674,136.535v51.199c0,4.267,3.458,7.726,7.726,7.726c4.268,0,7.726-3.459,7.726-7.726v-51.199
		H350.674z"/>
	<path style="fill:#FFA912;" d="M358.4,214.142c-4.268,0-7.726,3.459-7.726,7.726v68.266c0,4.267,3.458,7.726,7.726,7.726
		c4.268,0,7.726-3.459,7.726-7.726v-68.266C366.126,217.602,362.668,214.142,358.4,214.142z"/>
	<path style="fill:#FFA912;" d="M366.126,375.466v-51.201c0-4.267-3.458-7.726-7.726-7.726c-4.268,0-7.726,3.459-7.726,7.726v51.201
		H366.126z"/>
</g>
<path style="fill:#F5F6E8;" d="M420.485,308.622h-21.772c-3.414,0-6.181-2.767-6.181-6.181v-91.459c0-3.414,2.767-6.181,6.181-6.181
	h21.772c3.414,0,6.181,2.767,6.181,6.181v91.459C426.666,305.855,423.899,308.622,420.485,308.622z"/>
<circle style="fill:#DC1C4A;" cx="115.205" cy="226.136" r="29.867"/>
<path style="fill:#394D5C;" d="M331.994,198.401c0-2.38-1.097-4.626-2.972-6.09c-1.875-1.464-4.319-1.982-6.629-1.405
	l-68.268,17.067c-3.44,0.86-5.852,3.951-5.852,7.496v58.104c-2.886-1.178-6.038-1.833-9.341-1.833
	c-13.672,0-24.793,11.122-24.793,24.793s11.123,24.793,24.793,24.793c13.671,0,24.793-11.122,24.793-24.793v-75.032l52.815-13.204
	v43.944c-2.886-1.179-6.038-1.833-9.342-1.833c-13.671,0-24.793,11.122-24.793,24.793c0,13.672,11.123,24.793,24.793,24.793
	c13.658,0,24.771-11.1,24.792-24.753c0-0.013,0.002-0.027,0.002-0.04v-76.801H331.994z"/>
<g>
</g>
<g>
</g>
<g>
</g>
<g>
</g>
<g>
</g>
<g>
</g>
<g>
</g>
<g>
</g>
<g>
</g>
<g>
</g>
<g>
</g>
<g>
</g>
<g>
</g>
<g>
</g>
<g>
</g>
</svg>
