<?xml version="1.0" encoding="iso-8859-1"?>
<!-- Generator: Adobe Illustrator 19.0.0, SVG Export Plug-In . SVG Version: 6.00 Build 0)  -->
<svg version="1.1" id="Capa_1" xmlns="http://www.w3.org/2000/svg" xmlns:xlink="http://www.w3.org/1999/xlink" x="0px" y="0px"
	 viewBox="0 0 512 512" style="enable-background:new 0 0 512 512;" xml:space="preserve">
<path style="fill:#34B2CC;" d="M442.5,512h-373c-2.209,0-4-1.791-4-4V4c0-2.209,1.791-4,4-4h373c2.209,0,4,1.791,4,4v504
	C446.5,510.209,444.709,512,442.5,512z"/>
<path style="fill:#2E9EB5;" d="M415.608,0v512H442.5c2.209,0,4-1.791,4-4V4c0-2.209-1.791-4-4-4H415.608z"/>
<path style="fill:#F8E4D3;" d="M415.608,60.076v391.848c0,3.767-4.581,5.509-7.167,2.771c-2.393-2.534-5.233-4.505-8.278-4.505
	c-8.526,0-15.446,6.923-15.446,15.453c0,3.046,1.97,5.888,4.503,8.282c2.737,2.587,0.996,7.171-2.769,7.171h-260.9
	c-3.766,0-5.506-4.584-2.769-7.171c2.533-2.394,4.503-5.236,4.503-8.282c0-8.53-6.92-15.453-15.446-15.453
	c-3.045,0-5.885,1.971-8.278,4.505c-2.586,2.738-7.167,0.997-7.167-2.771V60.076c0-3.767,4.582-5.509,7.167-2.771
	c2.393,2.534,5.233,4.505,8.278,4.505c8.526,0,15.446-6.923,15.446-15.453c0-3.046-1.97-5.888-4.503-8.282
	c-2.737-2.587-0.996-7.171,2.769-7.171h260.9c3.766,0,5.506,4.584,2.769,7.171c-2.533,2.394-4.503,5.236-4.503,8.282
	c0,8.53,6.92,15.453,15.446,15.453c3.045,0,5.885-1.971,8.278-4.505C411.027,54.567,415.608,56.309,415.608,60.076z"/>
<path style="fill:#DC527C;" d="M251.882,157.785c0.511,0.704,1.572,0.704,2.083,0c4.124-5.686,20.486-25.43,48.835-25.43
	c29.527,0,49.876,27.662,49.876,59.877c0,37.289-27.739,81.408-99.752,119.755c-72.013-38.346-99.752-82.466-99.752-119.755
	c0-32.215,20.349-59.877,49.876-59.877C231.396,132.355,247.757,152.099,251.882,157.785z"/>
<path style="fill:#FAC55A;" d="M342.981,414.651H172.047c-2.275,0-4.12-1.845-4.12-4.12v-51.514c0-2.275,1.844-4.12,4.12-4.12
	H342.98c2.275,0,4.12,1.845,4.12,4.12v51.514C347.101,412.807,345.256,414.651,342.981,414.651z"/>
<g>
</g>
<g>
</g>
<g>
</g>
<g>
</g>
<g>
</g>
<g>
</g>
<g>
</g>
<g>
</g>
<g>
</g>
<g>
</g>
<g>
</g>
<g>
</g>
<g>
</g>
<g>
</g>
<g>
</g>
</svg>
